<?xml version="1.0" standalone="no"?>
<!DOCTYPE svg PUBLIC "-//W3C//DTD SVG 20010904//EN"
 "http://www.w3.org/TR/2001/REC-SVG-20010904/DTD/svg10.dtd">
<svg version="1.0" xmlns="http://www.w3.org/2000/svg"
 width="900.000000pt" height="900.000000pt" viewBox="0 0 900.000000 900.000000"
 preserveAspectRatio="xMidYMid meet">
<metadata>
Created by potrace 1.11, written by Peter Selinger 2001-2013
</metadata>
<g transform="translate(0.000000,900.000000) scale(0.100000,-0.100000)"
fill="#000000" stroke="none">
<path d="M4436 8263 c-1 -2 -48 -8 -128 -18 -20 -2 -50 -10 -65 -18 -15 -8
-42 -18 -60 -21 -17 -4 -37 -14 -44 -22 -6 -8 -19 -14 -29 -14 -9 0 -29 -9
-43 -20 -14 -11 -28 -20 -32 -20 -11 0 -148 -115 -180 -151 -92 -104 -185
-266 -185 -323 0 -13 -7 -29 -15 -36 -9 -7 -14 -15 -11 -17 2 -2 0 -21 -5 -41
-10 -41 -12 -280 -4 -327 3 -16 12 -51 21 -76 8 -25 16 -55 19 -67 2 -12 11
-32 19 -44 9 -12 16 -29 16 -36 0 -19 94 -158 144 -212 60 -66 161 -145 226
-177 14 -7 32 -16 40 -21 56 -32 90 -45 125 -49 22 -3 51 -13 65 -23 l25 -18
1 -302 c0 -198 -3 -303 -10 -307 -6 -4 -434 -8 -951 -9 -517 -1 -954 -4 -972
-7 -18 -3 -45 -12 -60 -20 -15 -8 -40 -17 -55 -21 -16 -3 -28 -11 -28 -16 0
-5 -15 -16 -32 -24 -40 -16 -154 -124 -197 -186 -54 -75 -89 -173 -106 -289
-8 -57 -9 -651 -1 -677 10 -34 -8 -46 -75 -50 -72 -4 -89 -7 -104 -15 -10 -7
-52 -18 -95 -26 -14 -2 -32 -11 -41 -19 -8 -8 -21 -14 -28 -14 -12 0 -101 -48
-111 -60 -3 -3 -25 -21 -50 -40 -25 -19 -55 -46 -66 -60 -12 -14 -36 -41 -53
-60 -17 -19 -31 -38 -31 -41 0 -3 -9 -16 -20 -29 -11 -13 -20 -29 -20 -35 0
-7 -6 -18 -14 -24 -8 -6 -19 -33 -26 -59 -6 -26 -16 -52 -21 -59 -26 -31 -30
-136 -32 -853 -2 -686 3 -804 38 -885 42 -98 69 -151 82 -158 7 -4 13 -14 13
-22 0 -23 153 -171 227 -218 66 -43 153 -83 198 -92 11 -2 36 -6 55 -9 19 -3
46 -8 60 -12 14 -3 42 -5 62 -5 27 1 38 -4 42 -17 2 -9 5 -111 4 -227 0 -211
6 -306 23 -337 5 -9 9 -27 9 -40 0 -39 78 -180 129 -233 58 -61 117 -112 145
-127 11 -6 27 -17 34 -25 7 -7 22 -13 33 -13 11 0 30 -7 43 -15 26 -17 37 -20
122 -30 74 -9 3999 -11 4074 -2 30 4 66 9 80 12 49 10 178 75 214 107 72 66
146 144 146 154 0 6 9 19 20 29 11 10 20 22 20 27 0 5 8 25 17 46 16 37 39
119 48 177 3 17 5 137 6 268 1 269 -9 241 94 251 28 3 60 7 71 10 12 2 38 7
58 10 20 3 44 10 54 16 9 5 47 23 85 41 37 17 67 35 67 39 0 5 8 11 18 14 24
8 150 130 188 181 16 22 35 46 42 53 6 7 12 19 12 26 0 7 8 24 18 37 26 34 60
152 68 234 9 94 9 1348 0 1452 -9 102 -11 111 -30 148 -9 17 -16 39 -16 50 0
11 -9 31 -20 45 -11 14 -20 31 -20 39 0 8 -7 21 -15 30 -8 9 -35 41 -59 71
-38 48 -92 102 -152 150 -29 24 -111 70 -124 70 -6 0 -23 8 -37 17 -14 10 -38
19 -52 21 -14 1 -47 10 -73 18 -26 8 -75 17 -109 19 -58 3 -85 17 -72 37 2 5
5 154 5 331 0 294 -5 397 -19 420 -3 4 -7 23 -9 40 -7 49 -53 147 -92 197 -43
56 -172 180 -188 180 -6 0 -21 9 -34 20 -13 11 -29 20 -35 20 -7 0 -34 10 -61
22 l-49 23 -957 1 c-527 0 -961 4 -965 8 -5 4 -8 143 -9 308 0 239 2 301 13
305 7 3 11 9 8 13 -2 4 20 12 51 18 52 11 104 30 149 55 11 6 34 17 50 26 17
8 35 18 40 23 6 4 24 19 41 33 18 14 34 25 37 25 11 0 130 126 156 164 48 72
71 111 81 136 6 14 16 36 24 50 8 14 16 39 19 55 3 17 11 44 17 60 32 77 31
358 -2 434 -10 24 -19 55 -20 70 -1 14 -8 32 -15 39 -7 7 -16 25 -20 40 -3 15
-14 38 -25 51 -10 13 -18 28 -18 33 0 16 -115 151 -166 195 -84 72 -112 93
-121 93 -6 0 -20 9 -33 20 -13 11 -31 20 -40 20 -10 0 -23 6 -29 14 -7 8 -27
18 -44 22 -18 3 -45 13 -61 21 -30 15 -36 17 -151 29 -68 7 -165 11 -169 7z"/>
</g>
</svg>
